# xmcd
#
# Track frame offsets:
#	150
#	11633
#	22099
#	31073
#	44075
#	57197
#	66892
#	76771
#	88112
#	99511
#	112381
#	125200
#	137981
#	152880
#	165805
#	177176
#	187875
#	201968
#	214358
#	224945
#	235476
#	245645
#	259194
#	275419
#
# Disc length: 3834 seconds
#
# Revision: 1
# Processed by: cddbd v1.5.2PL0 Copyright (c) Steve Scherf et al.
# Submitted via: audiograbber 1.83.01
#
DISCID=710ef818
DTITLE=Various Artist - The Best Of Money Records vol.2
DYEAR=2006
DGENRE=SOUL
TTITLE0=M-M's and The Peanuts - Can't Say No
TTITLE1=Mysteries - Too Late Now
TTITLE2=Eric Williams - Strange Things Are Happening To Me
TTITLE3=Bobby Angelle - Living A Lie
TTITLE4=Henry Strogin - Love Insurance
TTITLE5=Bettye Swann - The Dance Is Over
TTITLE6=Eric Williams - That Old Neighbourhood
TTITLE7=Larks - Lost My Love Yesterday
TTITLE8=Toni and The Showmen - Beware
TTITLE9=Question Marks - Ain't That Kinda Sad
TTITLE10=Tommy and Eddie - I Love My Baby
TTITLE11=Bobby Angelle - I Wanna Go Back Home
TTITLE12=Delilah Moore - Wrapped Up Tight
TTITLE13=Pat Livingston - You Bet I Would
TTITLE14=Hank Jacobs and The TKO's - Tam-A Rind
TTITLE15=Bettye Swann - The Man That Said No
TTITLE16=Bobby Angelle - I'll Be A Soldier Boy
TTITLE17=M-M's and The Peanuts - My Belief
TTITLE18=Ted Walters - Should I Take A Chance
TTITLE19=Larks - The Ducks
TTITLE20=Lee Maye - Pounding
TTITLE21=Gwenn Stewart - I Thought It Over
TTITLE22=Eddie Horan - Losing You
TTITLE23=Bobby Angelle - Please Take Me Back
EXTD=
EXTT0=
EXTT1=
EXTT2=
EXTT3=
EXTT4=
EXTT5=
EXTT6=
EXTT7=
EXTT8=
EXTT9=
EXTT10=
EXTT11=
EXTT12=
EXTT13=
EXTT14=
EXTT15=
EXTT16=
EXTT17=
EXTT18=
EXTT19=
EXTT20=
EXTT21=
EXTT22=
EXTT23=
PLAYORDER=
